<?xml version="1.0" standalone="no"?>
<!DOCTYPE svg PUBLIC "-//W3C//DTD SVG 20010904//EN"
 "http://www.w3.org/TR/2001/REC-SVG-20010904/DTD/svg10.dtd">
<svg version="1.0" xmlns="http://www.w3.org/2000/svg"
 width="1080.000000pt" height="1080.000000pt" viewBox="0 0 1080.000000 1080.000000"
 preserveAspectRatio="xMidYMid meet">
<metadata>
Created by potrace 1.14, written by Peter Selinger 2001-2017
</metadata>
<g transform="translate(0.000000,1080.000000) scale(0.100000,-0.100000)"
fill="#000000" stroke="none">
<path d="M5080 9914 c-298 -27 -553 -68 -796 -129 -990 -251 -1876 -840 -2496
-1662 -428 -565 -724 -1246 -842 -1928 -53 -310 -61 -414 -61 -795 0 -381 8
-485 61 -795 131 -763 473 -1493 992 -2118 98 -118 349 -374 475 -485 620
-544 1398 -919 2192 -1056 310 -53 414 -61 795 -61 381 0 485 8 795 61 1103
190 2129 820 2817 1731 428 565 724 1246 842 1928 53 310 61 414 61 795 0 381
-8 485 -61 795 -190 1103 -820 2129 -1731 2817 -645 488 -1382 782 -2213 884
-129 15 -712 28 -830 18z m669 -1239 c835 -470 1116 -633 1108 -641 -12 -12
-2261 -1279 -2288 -1289 -8 -3 -289 149 -664 360 -358 202 -871 491 -1142 643
-271 152 -489 280 -485 284 4 4 522 297 1152 652 1082 609 1146 644 1172 633
15 -7 531 -295 1147 -642z m-1362 -2074 l103 -56 -3 -229 -2 -229 -390 -219
c-407 -228 -445 -255 -465 -327 -6 -22 -10 -238 -10 -544 0 -280 -4 -507 -8
-505 -5 2 -331 185 -725 407 l-717 404 0 1272 0 1273 1058 -595 c581 -328
1103 -621 1159 -652z m2560 82 c-2 -2 -138 73 -303 165 -164 93 -317 175 -338
182 -95 31 -82 36 -866 -405 -397 -223 -728 -409 -736 -412 -12 -4 -14 23 -12
181 l3 186 1125 633 1125 634 3 -580 c1 -319 1 -582 -1 -584z m462 -498 c828
-466 1116 -633 1108 -641 -7 -6 -526 -300 -1154 -653 l-1141 -642 -45 23
c-185 96 -2244 1265 -2238 1271 4 4 522 297 1151 651 1085 611 1145 644 1172
633 15 -7 531 -295 1147 -642z m-1532 -1978 l272 -152 1 -1273 c0 -701 -4
-1272 -8 -1270 -5 2 -527 295 -1160 652 l-1152 649 0 1272 0 1273 888 -500
c488 -275 1009 -568 1159 -651z m2733 -121 l0 -1274 -1097 -617 c-604 -340
-1113 -626 -1130 -637 l-33 -20 0 1275 0 1274 1128 636 c620 350 1128 636
1130 636 1 1 2 -572 2 -1273z"/>
<path d="M5735 8267 c-65 -22 -99 -43 -138 -86 -43 -48 -51 -73 -45 -147 6
-70 43 -118 123 -159 53 -27 68 -30 154 -30 112 0 165 19 228 82 101 101 70
246 -70 317 -68 35 -184 45 -252 23z"/>
<path d="M4503 8254 c-52 -19 -125 -83 -147 -128 -80 -170 131 -339 353 -282
225 58 272 283 81 390 -49 27 -64 31 -150 33 -66 2 -108 -2 -137 -13z"/>
<path d="M3270 8231 c-79 -24 -159 -90 -181 -148 -13 -35 -11 -98 4 -136 17
-40 84 -101 134 -123 100 -42 251 -25 334 39 148 112 101 306 -87 363 -50 15
-162 18 -204 5z"/>
<path d="M3785 6637 c-57 -23 -74 -38 -101 -82 -23 -40 -26 -54 -22 -118 4
-89 32 -149 101 -218 71 -71 143 -103 239 -108 64 -2 85 1 123 19 90 43 128
134 101 241 -27 103 -101 191 -208 245 -61 32 -181 43 -233 21z"/>
<path d="M2496 5896 c-59 -22 -88 -47 -114 -97 -30 -58 -27 -151 7 -222 34
-71 110 -143 188 -180 58 -27 79 -32 144 -32 67 0 81 4 124 30 145 90 116 304
-60 437 -86 65 -211 93 -289 64z"/>
<path d="M6197 6600 c-124 -32 -203 -123 -195 -226 10 -122 125 -204 284 -204
295 0 393 298 136 412 -50 23 -169 32 -225 18z"/>
<path d="M4869 5774 c-101 -31 -178 -136 -166 -226 23 -168 287 -256 455 -151
73 45 105 93 110 163 4 50 0 66 -21 103 -29 49 -81 89 -146 112 -54 19 -170
19 -232 -1z"/>
<path d="M6127 5773 c-64 -22 -131 -83 -153 -138 -31 -82 0 -170 79 -223 69
-46 106 -57 197 -57 97 0 161 23 218 78 48 45 62 78 62 140 0 73 -43 138 -120
181 -47 26 -65 31 -145 33 -64 2 -104 -2 -138 -14z"/>
<path d="M7343 5751 c-144 -49 -209 -170 -154 -285 54 -111 225 -166 377 -121
103 30 180 128 172 217 -15 153 -218 251 -395 189z"/>
<path d="M6170 4987 c-96 -23 -163 -74 -194 -149 -22 -52 -20 -86 9 -145 43
-86 135 -136 255 -137 127 0 234 53 274 138 21 44 21 118 0 162 -49 102 -207
162 -344 131z"/>
<path d="M4232 4689 c-64 -32 -96 -86 -100 -170 -4 -56 0 -77 21 -123 34 -73
103 -146 180 -187 58 -32 68 -34 154 -34 85 0 94 2 134 30 154 109 84 367
-128 472 -80 39 -197 44 -261 12z"/>
<path d="M4815 3684 c-112 -61 -145 -185 -84 -312 32 -65 117 -148 186 -180
67 -31 171 -41 228 -22 165 54 179 266 28 418 -73 74 -146 106 -248 109 -59 3
-88 -1 -110 -13z"/>
<path d="M5435 2682 c-52 -25 -102 -82 -111 -128 -26 -138 59 -284 209 -359
60 -30 79 -35 141 -35 117 1 192 50 217 143 33 125 -62 292 -207 363 -75 37
-189 44 -249 16z"/>
<path d="M7758 3799 c-9 -5 -27 -27 -39 -48 -19 -35 -24 -38 -46 -30 -41 15
-129 10 -188 -12 -123 -46 -224 -149 -265 -274 -18 -53 -21 -83 -18 -153 4
-92 20 -140 64 -187 13 -14 24 -28 24 -30 0 -3 -16 -29 -35 -59 -19 -30 -35
-57 -35 -60 0 -3 13 0 30 5 18 7 38 26 50 47 l21 37 102 0 c98 0 105 2 166 35
196 106 291 342 211 527 -12 28 -32 61 -45 73 l-23 22 34 54 c19 29 34 56 34
59 0 8 -23 5 -42 -6z m-130 -185 c2 -1 -58 -102 -134 -224 l-137 -221 -19 29
c-28 44 -41 131 -28 187 28 127 88 194 205 231 33 10 100 10 113 -2z m69 -66
c13 -24 18 -56 18 -119 0 -75 -4 -92 -30 -144 -35 -69 -90 -115 -165 -140 -55
-18 -124 -13 -118 8 6 23 260 427 269 427 5 0 16 -15 26 -32z"/>
</g>
</svg>
